<?xml version="1.0" standalone="no"?>
<!DOCTYPE svg PUBLIC "-//W3C//DTD SVG 1.1//EN" "http://www.w3.org/Graphics/SVG/1.1/DTD/svg11.dtd" >
<!--
2013-9-30: Created.
-->
<svg>
<metadata>
Created by iconfont
</metadata>
<defs>

<font id="iconfont" horiz-adv-x="1024" >
  <font-face
    font-family="iconfont"
    font-weight="500"
    font-stretch="normal"
    units-per-em="1024"
    ascent="896"
    descent="-128"
  />
    <missing-glyph />
    
    <glyph glyph-name="x" unicode="x" horiz-adv-x="1001"
d="M281 543q-27 -1 -53 -1h-83q-18 0 -36.5 -6t-32.5 -18.5t-23 -32t-9 -45.5v-76h912v41q0 16 -0.5 30t-0.5 18q0 13 -5 29t-17 29.5t-31.5 22.5t-49.5 9h-133v-97h-438v97zM955 310v-52q0 -23 0.5 -52t0.5 -58t-10.5 -47.5t-26 -30t-33 -16t-31.5 -4.5q-14 -1 -29.5 -0.5
t-29.5 0.5h-32l-45 128h-439l-44 -128h-29h-34q-20 0 -45 1q-25 0 -41 9.5t-25.5 23t-13.5 29.5t-4 30v167h911zM163 247q-12 0 -21 -8.5t-9 -21.5t9 -21.5t21 -8.5q13 0 22 8.5t9 21.5t-9 21.5t-22 8.5zM316 123q-8 -26 -14 -48q-5 -19 -10.5 -37t-7.5 -25t-3 -15t1 -14.5
t9.5 -10.5t21.5 -4h37h67h81h80h64h36q23 0 34 12t2 38q-5 13 -9.5 30.5t-9.5 34.5q-5 19 -11 39h-368zM336 498v228q0 11 2.5 23t10 21.5t20.5 15.5t34 6h188q31 0 51.5 -14.5t20.5 -52.5v-227h-327z" />
    

    
    <glyph glyph-name="huabi" unicode="&#58930;" d="M804.348928 411.62112c88.542208 106.395648 58.763264 133.844992 3.519488 189.569024-42.984448 43.357184-78.058496 81.25952-186.809344-4.737024L804.348928 411.62112zM566.706176 548.814592c-9.347072-8.853504-19.059712-18.372608-29.305856-28.668928-1.938432-1.97632-287.210496-289.6384-287.210496-289.6384-40.471552-38.298624-107.738112-253.464576-84.508672-276.898816 23.231488-23.410688 234.458112 39.621632 273.586176 84.2752 0 0 285.940736 288.295936 288.218112 290.60096 10.206208 10.294272 19.70176 20.064256 28.577792 29.384704L566.706176 548.814592z"  horiz-adv-x="1024" />

    
    <glyph glyph-name="qianjin" unicode="&#58950;" d="M919.084032 351.362816 567.256064 634.40768c-37.8112 30.416896-68.517888 8.114176-68.517888-45.422592 0-16.234496 0-72.042496 0-143.183872l-6.380544 0c-220.652544 0-412.688384-254.962688-415.73376-481.719296 0-18.057216 14.67392-23.09632 28.664832 0 71.416832 127.261696 187.874304 193.225728 340.540416 193.225728l52.909056 0c0-76.507136 0-136.531968 0-151.04 0-45.059072 33.293312-75.886592 71.145472-45.544448l349.14816 280.126464C956.87168 271.21536 956.895232 320.936704 919.084032 351.362816z"  horiz-adv-x="1024" />

    
    <glyph glyph-name="fangda" unicode="&#58897;" d="M439.125333 22.666667M462.208 598.666667 384 598.666667 384 428 213.333333 428 213.333333 342.666667 384 342.666667 384 172 462.208 172 462.208 342.666667 640 342.666667 640 428 462.208 428ZM893.653333-43.68l-177.365333 177.365333C774.912 201.098667 810.666667 288.949333 810.666667 385.333333c0 212.096-171.904 384-384 384s-384-171.904-384-384 171.904-384 384-384c73.216 0 141.397333 20.864 199.594667 56.405333L810.666667-126.666667c0 0 42.666667-42.666667 85.333333 0S893.653333-43.68 893.653333-43.68zM126.677333 383.114667C126.677333 549.301333 261.376 684 427.562667 684s300.885333-134.698667 300.885333-300.885333-134.698667-300.885333-300.885333-300.885333S126.677333 216.928 126.677333 383.114667z"  horiz-adv-x="1024" />

    
    <glyph glyph-name="iconfonthoutui" unicode="&#58880;" d="M531.6803 445.8002l-6.35392 0c0 71.1414 0 126.9494 0 143.1818 0 53.5388-30.72 75.8436-68.5312 45.4236L104.9661 351.3587c-37.8112-30.4292-37.7856-80.1372 0.0584-110.5039l349.1471-280.1306c37.8399-30.3432 71.1547 0.4844 71.1547 45.5434 0 14.5111 0 74.5359 0 151.0339l52.885504 0c152.6743 0 269.1236-65.9579 340.5445-193.2196 13.995-23.0943 28.673-18.0582 28.673 0C944.3871 190.8324 752.3512 445.8002 531.6803 445.8002z"  horiz-adv-x="1024" />

    
    <glyph glyph-name="huabi1" unicode="&#58912;" d="M803.824927 411.892393c88.482217 106.323561 58.72345 133.754307 3.517103 189.440583-42.955324 43.327808-78.005608 81.204463-186.682773-4.733814L803.824927 411.892393zM566.343187 548.992911c-9.340739-8.847505-19.046798-18.36016-29.286-28.649504-1.937119-1.974981-287.015899-289.442158-287.015899-289.442158-40.444131-38.272675-107.665115-253.292843-84.451414-276.711206 23.215748-23.394826 234.299257 39.594787 273.40081 84.2181 0 0 285.747 288.100604 288.022833 290.404066 10.199293 10.287297 19.688411 20.050662 28.558429 29.364795L566.343187 548.992911z"  horiz-adv-x="1024" />

    
    <glyph glyph-name="icon" unicode="&#58920;" d="M977.794416 598.632644c-50.760702-64.906649-190.072677-244.087869-300.70082-386.471196L536.659464 362.000939c127.075562 118.80286 284.31989 265.712143 341.14864 318.331054C978.935237 773.959802 1067.59266 829.685059 1086.855971 806.914131 1098.891749 794.265949 1066.878772 712.483781 977.794416 598.632644zM652.578776 180.609233c-42.843778-55.140848-79.70816-102.605068-102.288951-131.67384l-166.290409 170.294947c26.946939 25.224042 71.82623 67.19529 123.844402 115.832992L652.578776 180.609233zM525.496216 17.002903l0 0.509753C428.952197-371.767432 0-147.995042 0-147.995042s179.977928-23.83826 179.977928 152.594724c0 171.037997 165.41438 186.472909 175.560454 187.255619l170.296114-174.404469C525.813499 17.418171 525.496216 17.002903 525.496216 17.002903z"  horiz-adv-x="1090" />

    
    <glyph glyph-name="mianxingtubiao1xiangpica" unicode="&#59078;" d="M930.360889 431.549867 656.816356 705.0944c-35.544178 35.544178-93.184 35.544178-128.728178 0L93.639111 270.645333c-35.544178-35.544178-35.544178-93.184 0-128.728178l197.495467-197.472711-0.068267 0.091022-4.3008 4.3008c79.985778-79.985778 209.646933-79.985778 289.632711 0L566.385778-61.130667l0.045511 0.022756 363.9296 363.906844C965.905067 338.365867 965.905067 396.005689 930.360889 431.549867zM576.352711-19.010133c-8.897422-8.874667-23.278933-8.874667-32.176356 0l-337.92 337.92c-8.874667 8.897422-8.874667 23.301689 0.022756 32.176356 8.874667 8.897422 23.278933 8.897422 32.176356 0l337.897244-337.897244C585.250133 4.314311 585.250133-10.112711 576.352711-19.010133z"  horiz-adv-x="1024" />

    
    <glyph glyph-name="yuanquan" unicode="&#58994;" d="M512-212C229.25-212 0 17.252 0 300.001 0 582.75 229.25 812 512 812c282.75 0 512-229.25 512-511.999C1024 17.252 794.75-212 512-212zM512 684c-212.125 0-384-172-384-383.999C128 88.002 299.875-84 512-84c212 0 384 172.002 384 384.001C896 512 724 684 512 684z"  horiz-adv-x="1024" />

    
    <glyph glyph-name="qingping" unicode="&#58937;" d="M779.476891 656.871761c17.412578 0 31.778774-2.902096 43.097564-8.706289s20.315698-13.059434 26.990724-21.766746c6.675026-8.706289 11.31879-18.138102 13.930267-28.296463s3.918239-19.590174 3.918239-28.296463c0-4.063549-0.145309-7.255241-0.434905-9.577123-0.290619-2.321882-0.434905-4.353145-0.434905-6.094812l0-5.223978-57.462736 0 0-457.092459c0-11.608386-2.321882-22.781866-6.965645-33.520441-4.643764-10.737552-11.31879-20.170388-20.025079-28.296463-8.706289-8.126075-19.299555-14.655791-31.778774-19.589151s-26.845415-7.40055-43.097564-7.40055L318.901097 3.010823c-15.09172 0-29.311583 2.321882-42.661635 6.965645-13.350053 4.643764-24.814152 11.17348-34.391275 19.590174-9.577123 8.416693-17.122983 18.574031-22.636556 30.473035-5.514597 11.899004-8.271384 25.394367-8.271384 40.485063L210.940247 548.909887l-53.980425 0c-0.580215 0.580215-0.870834 2.031263-0.870834 4.353145-0.580215 2.902096-0.870834 11.899004-0.870834 26.990724 0 7.54586 1.741667 15.96153 5.223978 25.249057 3.482311 9.286504 8.706289 17.848507 15.671934 25.683962 6.965645 7.835456 15.96153 14.366196 26.990724 19.590174 11.028171 5.223978 24.087605 7.835456 39.179324 7.835456l77.487815 0 0 53.109592c0 15.09172 5.223978 28.005844 15.671934 38.744419 10.447956 10.737552 23.217794 16.10684 38.308491 16.10684l272.514627 0c20.315698 0 34.391275-5.369288 42.22673-16.10684 7.835456-10.737552 11.753695-23.652699 11.753695-38.744419l0-53.980425c12.1886-0.580215 25.249057-0.870834 39.179324-0.870834L779.476891 656.871761 779.476891 656.871761zM373.752356 656.871761l272.514627 0 0 54.851259L373.752356 711.72302 373.752356 656.871761 373.752356 656.871761zM333.098447 71.467961c20.253276 0 30.379914 12.974499 30.379914 38.923498L363.478362 550.893055l-58.860573 0 0-440.501596c0-13.290701 2.056845-23.101137 6.170536-29.430286C314.902016 74.633047 322.338383 71.467961 333.098447 71.467961zM512.525979 72.417589c10.759041 0 18.037818 3.006474 21.835308 9.018398 3.797489 6.012947 5.695722 15.664771 5.695722 28.955472L540.057009 550.893055l-58.860573 0 0-440.501596C481.19746 85.075887 491.6403 72.417589 512.525979 72.417589zM691.00593 74.316845c11.392468 0 18.987447 3.006474 22.784936 9.018398 3.797489 6.012947 5.695722 15.664771 5.695722 28.955472L719.486588 550.893055l-59.809177 0 0-438.60234C659.676387 86.97412 670.119227 74.316845 691.00593 74.316845L691.00593 74.316845z"  horiz-adv-x="1024" />

    
    <glyph glyph-name="zhankai" unicode="&#58886;" d="M516.211928 224.469634 911.396409 619.039107l48.044226-48.049343L564.68185 176.214606l0 0-46.351678-46.355771L64.21758 583.99087l46.350654 46.350654L516.211928 224.469634zM516.211928 224.469634"  horiz-adv-x="1024" />

    
    <glyph glyph-name="rectangle" unicode="&#58909;" d="M0 809.984v-851.968h1024v851.968h-1024zM937.984 44.032h-851.968v679.936h851.968l0-679.936z"  horiz-adv-x="1024" />

    
    <glyph glyph-name="tupian" unicode="&#59142;" d="M901.717111 787.479652 121.199158 787.479652c-39.18341 0-70.936385-32.822111-70.936385-73.356841l0-660.379417c0-40.477563 31.751759-73.356841 70.936385-73.356841l780.517953 0c39.18341 0 70.935169 32.878061 70.935169 73.356841L972.652279 714.122812C972.653496 754.657541 940.90052 787.479652 901.717111 787.479652zM857.354655 95.68661 165.561613 95.68661l0 576.494202 691.793042 0L857.354655 95.68661zM298.594246 457.290552c39.18341 0 70.935169 32.878061 70.935169 73.412791 0 40.53473-31.751759 73.356841-70.935169 73.356841-39.127459 0-70.936385-32.822111-70.936385-73.356841C227.659077 490.168613 259.466786 457.290552 298.594246 457.290552zM626.756974 556.881972 455.892252 257.09331l-88.55706 153.07498L223.211033 153.33603l576.494202 0L626.756974 556.881972z"  horiz-adv-x="1024" />

    
    <glyph glyph-name="huabi3" unicode="&#58944;" d="M884.641557 757.428991C811.672662 830.434725 755.277234 839.486892 726.075145 810.284803l-79.284741-79.283718 211.422224-211.422224 79.31851 79.284741C966.698434 628.063645 957.646268 684.461119 884.641557 757.428991zM144.589584 228.799242c-14.600533-14.564717-68.333318-226.898707-68.333318-226.898707-3.193739-8.709359-10.073426-42.179658 0-52.855812 7.039323-7.460925 25.424042-10.638291 52.855812 0 0 0 212.33399 53.730739 226.938616 68.333318l449.309192 449.345008L593.934592 678.14425 144.589584 228.799242zM132.177903 4.965338 185.764356 187.623447l129.110543-129.071657L132.177903 4.965338z"  horiz-adv-x="1024" />

    
    <glyph glyph-name="huabi2" unicode="&#58922;" d="M358.681102 309.613826c0 0-90.967828-49.399083-94.488001-126.826524-3.51915-77.428464-77.42744-133.73998-102.063537-140.77828s360.157733-22.971178 332.002486 142.444223L358.681102 309.613826zM527.780405 257.05375c14.015202-13.600763 17.565051-32.67519 7.928576-42.605354l0 0c-9.635451-9.930163-28.809139-6.954389-42.823318 6.646374l-92.7668 88.518033c-14.015202 13.600763-17.565051 32.67519-7.928576 42.605354l0 0c9.635451 9.930163 28.809139 6.954389 42.823318-6.646374L527.780405 257.05375zM849.514013 722.137207c-25.143657 17.054421-47.741327 1.763157-57.477063-3.805676-29.096688-19.484773-237.243309-221.768873-327.689251-315.193659-11.105942-14.800078-18.590404-26.293853 34.662451-79.545684 44.950771-44.950771 65.895803-42.011836 88.660272-22.602787 37.905308 37.905308 199.298092 262.925225 258.918981 348.713077C856.382445 663.794427 876.441293 703.872215 849.514013 722.137207z"  horiz-adv-x="1024" />

    
    <glyph glyph-name="font" unicode="&#59211;" d="M450.857143 576.571429l-97.142857-257.142857q18.857143 0 78-1.142857t91.714286-1.142857q10.857143 0 32.571429 1.142857-49.714286 144.571429-105.142857 258.285714zm-414.285714-631.428571l1.142857 45.142857q13.142857 4 32 7.142857t32.571429 6 28.285714 8.285714 25.428571 16.571429 17.714286 28.857143l135.428571 352 160 413.714286 73.142857 0q4.571429-8 6.285714-12l117.142857-274.285714q18.857143-44.571429 60.571429-147.142857t65.142857-156.857143q8.571429-19.428571 33.142857-82.571429t41.142857-96.285714q11.428571-25.714286 20-32.571429 10.857143-8.571429 50.285714-16.857143t48-11.714286q3.428571-21.714286 3.428571-32.571429 0-2.285714 2.857143-7.428571t2.857143-7.428571q-36 0-108.571429 4.571429t-109.142857 4.571429q-43.428571 0-122.857143-4t-101.714286-4.571429q0 24.571429 2.285714 44.571429l74.857143 16q0.571429 0 7.142857 1.428571t8.857143 2 8.285714 2.571429 8.571429 3.714286 6.285714 4.571429 5.142857 6.285714 1.428571 8q0 9.142857-17.714286 55.142857t-41.142857 101.428571-24 57.142857l-257.142857 1.142857q-14.857143-33.142857-43.714286-111.714286t-28.857143-92.857143q0-12.571429 8-21.428571t24.857143-14 27.714286-7.714286 32.571429-4.857143 23.428571-2.285714q0.571429-10.857143 0.571429-33.142857 0-5.142857-1.142857-15.428571-33.142857 0-99.714286 5.714286t-99.714286 5.714286q-4.571429 0-15.142857-2.285714t-12.285714-2.285714q-45.714286-8-107.428571-8z"  horiz-adv-x="1024" />

    
    <glyph glyph-name="tuodong" unicode="&#58881;" d="M458.147366 689.932879l107.577276 0 0-611.801762-107.577276 0 0 611.801762ZM339.946753 689.932879c-13.311168 13.311168-13.311168 34.813824 0 48.124992l148.022749 148.022749c13.311168 13.311168 34.813824 13.311168 48.124992 0l148.022749-148.022749c13.311168-13.311168 13.311168-34.813824 0-48.124992L339.946753 689.932879zM339.946753 78.131117c-13.311168-13.311168-13.311168-34.813824 0-48.124992l148.022749-148.022749c13.311168-13.311168 34.813824-13.311168 48.124992 0l148.022749 148.022749c13.311168 13.311168 13.311168 34.813824 0 48.124992L339.946753 78.131117zM817.868883 556.053247c13.311168 13.311168 34.813824 13.311168 48.124992 0l148.022749-148.022749c13.311168-13.311168 13.311168-34.813824 0-48.124992l-148.022749-148.022749c-13.311168-13.311168-34.813824-13.311168-48.124992 0L817.868883 556.053247zM206.067121 556.053247c-13.311168 13.311168-34.813824 13.311168-48.124992 0L9.983376 408.094494c-13.311168-13.311168-13.311168-34.813824 0-48.124992l148.022749-148.022749c13.311168-13.311168 34.813824-13.311168 48.124992 0L206.131117 556.053247zM206.067121 437.852634l611.801762 0 0-107.577276-611.801762 0 0 107.577276Z"  horiz-adv-x="1024" />

    
    <glyph glyph-name="wenzi" unicode="&#58980;" d="M151.664 775.755l720.172 0 0-242.431-31.848 0c0 0-60.781 148.03-132.493 160.951-71.714 12.92-121.564 4.029-121.564 4.029l-0.894-618.074c0 0 19.905-41.777 52.757-44.739l72.727 0 0-42.672-397.483 0 1.005 43.733 63.698 1.007c0 0 47.832 14.934 47.832 49.717 0 34.73 1.009 606.05 1.009 606.05s-78.671 10.85-119.545 0.896c-40.818-9.9-112.59-69.517-123.524-156.923l-31.848-1.007 0 239.466zM151.664 775.755z"  horiz-adv-x="1024" />

    
    <glyph glyph-name="huaban_bi" unicode="&#59159;" d="M889.2 761c-73.8 73.8-130.8 83-160.4 53.5l-80.2-80.2 213.8-213.8 80.2 80.2C972.2 630.2 963 687.2 889.2 761zM140.7 226.29999999999995c-14.8-14.7-69.1-229.5-69.1-229.5-3.2-8.8-10.2-42.7 0-53.5 7.1-7.5 25.7-10.8 53.5 0 0 0 214.8 54.3 229.5 69.1L809 467 595.2 680.8 140.7 226.29999999999995z m-12.6-226.4l54.2 184.8 130.6-130.6-184.8-54.2z"  horiz-adv-x="1024" />

    
    <glyph glyph-name="jietu" unicode="&#58916;" d="M781.963636 702.526061L204.179394 124.834909V702.526061H781.963636zM248.087273 80.958061L826.088727 658.897455v-577.939394H248.087273zM50.579394 702.308848c0.310303 0 0.558545 0.217212 0.868848 0.217213H142.118788v-652.598303c0-0.434424-0.186182-0.806788-0.155152-1.241213 0.682667-17.221818 15.173818-30.72 32.426667-30.006303 0.310303 0 0.558545 0.186182 0.868849 0.217213h650.798545v-93.09091c0-0.434424-0.186182-0.806788-0.155152-1.241212a31.123394 31.123394 0 1 1 62.184728 1.210182v0.248243c0 0.310303 0.217212 0.620606 0.186182 0.992969 0 0.248242-0.124121 0.403394-0.155152 0.620606v91.229091h92.718545c0.434424 0 0.837818-0.217212 1.303273-0.186182a31.278545 31.278545 0 1 1-2.451394 62.495031c-0.310303-0.03103-0.558545-0.217212-0.868848-0.217212h-90.701576V720.958061l83.471515 83.471515a30.937212 30.937212 0 0 1 9.309091 23.210666 31.247515 31.247515 0 0 1-32.426667 30.006303 30.906182 30.906182 0 0 1-22.155636-10.736484L844.024242 764.586667H204.179394v93.090909c0 0.434424 0.217212 0.775758 0.217212 1.210182a31.123394 31.123394 0 0 1-62.215758-1.210182H142.118788v-0.217212c0-0.341333-0.155152-0.651636-0.155152-0.99297 0-0.248242 0.155152-0.434424 0.155152-0.682667v-91.229091H49.493333c-0.465455 0-0.868848 0.279273-1.334303 0.248243a31.247515 31.247515 0 1 1 2.420364-62.495031z"  horiz-adv-x="1024" />

    
    <glyph glyph-name="dian" unicode="&#58890;" d="M512 384m-147.3 0a147.3 147.3 0 1 1 294.6 0 147.3 147.3 0 1 1-294.6 0Z"  horiz-adv-x="1024" />

    
    <glyph glyph-name="up" unicode="&#58884;" d="M43.746 265.737l55.791-54.994 408.035 408.005 408.057-408.005 55.027 54.995-463.46 463.365-54.994-54.974z"  horiz-adv-x="1024" />

    
    <glyph glyph-name="dian1" unicode="&#59360;" d="M512.512 382.976m-174.08 0a174.08 174.08 0 1 1 348.16 0 174.08 174.08 0 1 1-348.16 0Z"  horiz-adv-x="1024" />

    
    <glyph glyph-name="minus" unicode="&#58882;" d="M426.656 832q78.016 0 149.152-30.496t122.496-81.824 81.824-122.496 30.496-149.152q0-67.008-21.824-128.32t-62.176-111.328l242.336-242.016q12.32-12.32 12.32-30.336 0-18.336-12.16-30.496t-30.496-12.16q-18.016 0-30.336 12.32l-242.016 242.336q-50.016-40.32-111.328-62.176t-128.32-21.824q-78.016 0-149.152 30.496t-122.496 81.824-81.824 122.496-30.496 149.152 30.496 149.152 81.824 122.496 122.496 81.824 149.152 30.496zM426.656 746.656q-60.672 0-116-23.68t-95.328-63.68-63.68-95.328-23.68-116 23.68-116 63.68-95.328 95.328-63.68 116-23.68 116 23.68 95.328 63.68 63.68 95.328 23.68 116-23.68 116-63.68 95.328-95.328 63.68-116 23.68zM298.656 490.656h256q17.664 0 30.176-12.512t12.512-30.176-12.512-30.176-30.176-12.512h-256q-17.664 0-30.176 12.512t-12.512 30.176 12.512 30.176 30.176 12.512z"  horiz-adv-x="1024" />

    
    <glyph glyph-name="dian2" unicode="&#58883;" d="M512 480.492c53.287 0 96.492-43.207 96.492-96.492S565.285 287.508 512 287.508 415.508 330.715 415.508 384s43.207 96.492 96.492 96.492z"  horiz-adv-x="1024" />

    
    <glyph glyph-name="zhixian" unicode="&#58971;" d="M0-25.5488l921.6 921.6 98.7136-98.7648-921.6-921.5488z"  horiz-adv-x="1024" />

    
    <glyph glyph-name="huaban_bi-copy" unicode="&#59361;" d="M889.2 761c-73.8 73.8-130.8 83-160.4 53.5l-80.2-80.2 213.8-213.8 80.2 80.2C972.2 630.2 963 687.2 889.2 761zM140.7 226.29999999999995c-14.8-14.7-69.1-229.5-69.1-229.5-3.2-8.8-10.2-42.7 0-53.5 7.1-7.5 25.7-10.8 53.5 0 0 0 214.8 54.3 229.5 69.1L809 467 595.2 680.8 140.7 226.29999999999995z m-12.6-226.4l54.2 184.8 130.6-130.6-184.8-54.2z"  horiz-adv-x="1024" />

    


  </font>
</defs>
</svg>
